HIERARCHY
ROOT Haolin_28_06:Solving:Hips
{
	OFFSET 0.000000 0.000000 0.000000
	CHANNELS 6 Xposition Yposition Zposition Xrotation Yrotation Zrotation
	JOINT Haolin_28_06:Solving:Spine
	{
		OFFSET 0.000000 -12.181966 2.015561
		CHANNELS 6 Xposition Yposition Zposition Xrotation Yrotation Zrotation
		JOINT Haolin_28_06:Solving:Spine1
		{
			OFFSET 0.000000 -8.890296 1.567602
			CHANNELS 6 Xposition Yposition Zposition Xrotation Yrotation Zrotation
			JOINT Haolin_28_06:Solving:Spine2
			{
				OFFSET 0.000000 -8.993092 0.786796
				CHANNELS 6 Xposition Yposition Zposition Xrotation Yrotation Zrotation
				JOINT Haolin_28_06:Solving:Spine3
				{
					OFFSET 0.000000 -9.027443 0.000000
					CHANNELS 6 Xposition Yposition Zposition Xrotation Yrotation Zrotation
					JOINT Haolin_28_06:Solving:Neck
					{
						OFFSET 0.000000 -11.606712 -1.160669
						CHANNELS 6 Xposition Yposition Zposition Xrotation Yrotation Zrotation
						JOINT Haolin_28_06:Solving:Neck1
						{
							OFFSET 0.000000 -7.471592 -0.653680
							CHANNELS 6 Xposition Yposition Zposition Xrotation Yrotation Zrotation
							JOINT Haolin_28_06:Solving:Head
							{
								OFFSET 0.000000 -7.386181 -1.302382
								CHANNELS 6 Xposition Yposition Zposition Xrotation Yrotation Zrotation
								JOINT Haolin_28_06:Solving:HeadEnd
								{
									OFFSET 0.000000 -9.728081 0.000002
									CHANNELS 6 Xposition Yposition Zposition Xrotation Yrotation Zrotation
									End Site
									{
										OFFSET 0.000000 -9.728081 0.000002
									}
								}
							}
						}
					}
					JOINT Haolin_28_06:Solving:RightShoulder
					{
						OFFSET 0.000000 -8.290508 -5.270916
						CHANNELS 6 Xposition Yposition Zposition Xrotation Yrotation Zrotation
						JOINT Haolin_28_06:Solving:RightArm
						{
							OFFSET -19.261074 -0.000008 0.000000
							CHANNELS 6 Xposition Yposition Zposition Xrotation Yrotation Zrotation
							JOINT Haolin_28_06:Solving:RightForeArm
							{
								OFFSET -30.691700 -0.000011 0.000000
								CHANNELS 6 Xposition Yposition Zposition Xrotation Yrotation Zrotation
								JOINT Haolin_28_06:Solving:RightHand
								{
									OFFSET -20.216934 -0.000008 0.000000
									CHANNELS 6 Xposition Yposition Zposition Xrotation Yrotation Zrotation
									JOINT Haolin_28_06:Solving:RightHandThumb1
									{
										OFFSET -4.948814 2.881329 -3.679893
										CHANNELS 6 Xposition Yposition Zposition Xrotation Yrotation Zrotation
										End Site
										{
											OFFSET -7.039886 -0.000004 -7.104978
										}
									}
									JOINT Haolin_28_06:Solving:RightHandMiddle1
									{
										OFFSET -13.196846 -0.000004 0.084595
										CHANNELS 6 Xposition Yposition Zposition Xrotation Yrotation Zrotation
										End Site
										{
											OFFSET -10.002037 -0.000004 0.000000
										}
									}
								}
							}
						}
					}
					JOINT Haolin_28_06:Solving:LeftShoulder
					{
						OFFSET 0.000000 -8.290508 -5.270916
						CHANNELS 6 Xposition Yposition Zposition Xrotation Yrotation Zrotation
						JOINT Haolin_28_06:Solving:LeftArm
						{
							OFFSET 19.261074 -0.000008 0.000000
							CHANNELS 6 Xposition Yposition Zposition Xrotation Yrotation Zrotation
							JOINT Haolin_28_06:Solving:LeftForeArm
							{
								OFFSET 30.691700 -0.000011 0.000000
								CHANNELS 6 Xposition Yposition Zposition Xrotation Yrotation Zrotation
								JOINT Haolin_28_06:Solving:LeftHand
								{
									OFFSET 20.216934 -0.000008 0.000000
									CHANNELS 6 Xposition Yposition Zposition Xrotation Yrotation Zrotation
									JOINT Haolin_28_06:Solving:LeftHandThumb1
									{
										OFFSET 4.948814 2.881329 -3.679893
										CHANNELS 6 Xposition Yposition Zposition Xrotation Yrotation Zrotation
										End Site
										{
											OFFSET 7.039886 -0.000004 -7.104978
										}
									}
									JOINT Haolin_28_06:Solving:LeftHandMiddle1
									{
										OFFSET 13.196846 -0.000004 0.084595
										CHANNELS 6 Xposition Yposition Zposition Xrotation Yrotation Zrotation
										End Site
										{
											OFFSET 10.002037 -0.000004 0.000000
										}
									}
								}
							}
						}
					}
				}
			}
		}
	}
	JOINT Haolin_28_06:Solving:RightUpLeg
	{
		OFFSET -10.083070 0.000000 0.000000
		CHANNELS 6 Xposition Yposition Zposition Xrotation Yrotation Zrotation
		JOINT Haolin_28_06:Solving:RightLeg
		{
			OFFSET 0.000000 47.042522 -0.000008
			CHANNELS 6 Xposition Yposition Zposition Xrotation Yrotation Zrotation
			JOINT Haolin_28_06:Solving:RightFoot
			{
				OFFSET 0.000000 38.766415 -0.000006
				CHANNELS 6 Xposition Yposition Zposition Xrotation Yrotation Zrotation
				JOINT Haolin_28_06:Solving:RightForeFoot
				{
					OFFSET 0.000000 3.531212 -0.000000
					CHANNELS 6 Xposition Yposition Zposition Xrotation Yrotation Zrotation
					JOINT Haolin_28_06:Solving:RightToeBase
					{
						OFFSET 0.000000 0.000000 -13.829352
						CHANNELS 6 Xposition Yposition Zposition Xrotation Yrotation Zrotation
						JOINT Haolin_28_06:Solving:RightToeBaseEnd
						{
							OFFSET 0.000000 0.000000 -4.034167
							CHANNELS 6 Xposition Yposition Zposition Xrotation Yrotation Zrotation
							End Site
							{
								OFFSET 0.000000 -4.034164 0.000004
							}
						}
					}
				}
			}
		}
	}
	JOINT Haolin_28_06:Solving:LeftUpLeg
	{
		OFFSET 10.083070 0.000000 0.000000
		CHANNELS 6 Xposition Yposition Zposition Xrotation Yrotation Zrotation
		JOINT Haolin_28_06:Solving:LeftLeg
		{
			OFFSET 0.000000 47.042522 -0.000008
			CHANNELS 6 Xposition Yposition Zposition Xrotation Yrotation Zrotation
			JOINT Haolin_28_06:Solving:LeftFoot
			{
				OFFSET 0.000000 38.766415 -0.000006
				CHANNELS 6 Xposition Yposition Zposition Xrotation Yrotation Zrotation
				JOINT Haolin_28_06:Solving:LeftForeFoot
				{
					OFFSET 0.000000 3.531212 -0.000000
					CHANNELS 6 Xposition Yposition Zposition Xrotation Yrotation Zrotation
					JOINT Haolin_28_06:Solving:LeftToeBase
					{
						OFFSET 0.000000 0.000000 -13.829352
						CHANNELS 6 Xposition Yposition Zposition Xrotation Yrotation Zrotation
						JOINT Haolin_28_06:Solving:LeftToeBaseEnd
						{
							OFFSET 0.000000 0.000000 -4.855067
							CHANNELS 6 Xposition Yposition Zposition Xrotation Yrotation Zrotation
							End Site
							{
								OFFSET 0.000000 -4.855064 0.000004
							}
						}
					}
				}
			}
		}
	}
}
MOTION
Frames: 4
Frame Time: 0.041667
-67.466934 -175.737198 -69.084724 145.175603 -4.767842 -5.221966 -0.000020 -12.181941 2.015534 23.798286 0.271228 -2.101717 -0.000002 -8.890271 1.567577 6.327689 -0.104241 -0.783707 0.000014 -8.993100 0.786778 3.570352 -0.292351 1.520746 -0.000020 -9.027435 0.000005 -3.208381 -0.654256 3.907474 0.000009 -11.606725 -1.160694 -16.174725 3.223822 -0.639382 0.000002 -7.471571 -0.653693 -12.584607 3.724021 -2.090451 -0.000019 -7.386189 -1.302382 -7.589794 0.742587 -1.919861 0.000001 -9.728081 -0.000003 0.000000 0.000000 -0.000000 0.000000 -8.290482 -5.270936 -0.000008 15.476840 20.887864 -19.261063 0.000005 0.000005 -88.307885 -42.246585 -96.767211 -30.691694 -0.000006 -0.000035 -29.662265 -7.484494 -4.242659 -20.216921 -0.000002 0.000004 4.631319 -15.538996 16.824709 -4.948787 2.881336 -3.679859 0.000001 -0.000000 -0.000004 -13.196835 0.000022 0.084622 0.000003 0.000001 -0.000004 0.000000 -8.290478 -5.270936 -0.000007 -10.376551 -20.595857 19.261076 -0.000036 -0.000016 -103.208215 50.323980 109.728669 30.691692 -0.000033 0.000004 -29.549034 7.745647 4.369173 20.216923 0.000053 0.000010 0.614284 1.346740 -24.521858 4.948788 2.881322 -3.679887 -0.000001 -0.000002 -0.000004 13.196851 -0.000005 0.084586 -0.000002 -0.000000 -0.000003 -10.083085 0.000038 -0.000022 -116.513219 13.155568 25.125978 0.000014 47.042542 0.000015 87.996052 -0.000007 -0.000001 0.000013 38.766396 -0.000002 -22.514156 0.269711 7.885177 0.000009 3.531212 0.000014 -0.000001 0.000003 0.000000 -0.000006 0.000011 -13.829317 -7.900915 0.000004 0.000000 0.000007 0.000000 -4.034153 0.000001 -0.000001 -0.000000 10.083071 0.000040 -0.000020 -111.967844 -22.958101 -19.115428 0.000001 47.042522 -0.000005 83.121606 -0.000001 -0.000005 0.000005 38.766430 0.000004 -20.668924 2.465690 3.522238 -0.000005 3.531219 -0.000026 0.000000 0.000002 0.000000 -0.000001 0.000020 -13.829338 0.770605 0.000005 -0.000003 -0.000010 -0.000016 -4.855092 -0.000001 0.000004 0.000000 
-67.548744 -175.650940 -68.647850 144.629447 -4.569820 -4.987070 -0.000010 -12.181945 2.015553 24.493787 0.216637 -2.171467 0.000008 -8.890273 1.567563 6.605748 -0.093825 -0.896330 0.000001 -8.993106 0.786806 3.902980 -0.365751 1.403980 0.000011 -9.027424 -0.000008 -3.328758 -0.705757 3.970793 -0.000005 -11.606734 -1.160674 -16.390239 3.233766 -0.603610 0.000011 -7.471584 -0.653672 -12.854899 3.688077 -2.168104 0.000010 -7.386199 -1.302390 -7.666339 0.736737 -1.925078 -0.000011 -9.728104 -0.000026 0.000002 0.000000 0.000000 -0.000008 -8.290543 -5.270927 -0.000007 15.591903 20.902652 -19.261063 -0.000014 0.000014 -88.856069 -42.187005 -96.543754 -30.691704 -0.000030 0.000013 -29.764551 -7.655367 -4.356545 -20.216923 -0.000020 0.000018 4.616704 -15.511199 16.802064 -4.948817 2.881328 -3.679873 0.000002 0.000007 0.000007 -13.196869 -0.000005 0.084606 -0.000007 0.000000 -0.000000 0.000005 -8.290543 -5.270929 -0.000003 -10.432215 -20.566490 19.261074 -0.000033 0.000011 -103.629140 50.455642 109.612215 30.691700 -0.000033 -0.000004 -29.830298 7.646671 4.363199 20.216898 -0.000001 0.000006 0.548929 1.172990 -25.081114 4.948817 2.881328 -3.679905 -0.000004 0.000002 -0.000006 13.196846 -0.000005 0.084576 -0.000004 -0.000003 -0.000009 -10.083052 0.000049 0.000007 -116.312466 13.496920 25.277716 -0.000032 47.042480 0.000020 88.768649 -0.000002 -0.000002 0.000013 38.766430 -0.000028 -22.975903 0.149633 8.053714 0.000023 3.531212 -0.000015 -0.000002 -0.000003 -0.000000 -0.000010 0.000013 -13.829349 -8.116913 0.000010 -0.000000 0.000011 0.000008 -4.034171 0.000001 0.000001 -0.000000 10.083063 0.000010 -0.000017 -112.029630 -22.554956 -19.550254 0.000039 47.042511 0.000026 84.124558 -0.000003 -0.000005 -0.000003 38.766418 -0.000028 -20.954602 2.649526 3.394423 -0.000002 3.531212 -0.000020 -0.000001 0.000001 0.000001 -0.000015 0.000011 -13.829376 0.576096 0.000001 -0.000001 -0.000016 -0.000001 -4.855098 -0.000002 0.000002 0.000000 
-67.555557 -175.729065 -68.254082 145.037332 -4.548176 -5.048182 -0.000005 -12.181959 2.015532 24.570169 0.192230 -2.131362 -0.000006 -8.890309 1.567602 6.641190 -0.103125 -0.857132 0.000009 -8.993098 0.786804 3.667620 -0.271255 1.475360 -0.000005 -9.027454 0.000021 -3.462810 -0.656279 3.937954 0.000009 -11.606724 -1.160710 -16.280514 3.206431 -0.686066 -0.000006 -7.471584 -0.653661 -13.030403 3.663145 -2.216268 0.000002 -7.386164 -1.302391 -7.695077 0.734202 -1.925179 0.000000 -9.728088 -0.000014 0.000011 0.000000 0.000002 -0.000001 -8.290520 -5.270942 -0.000008 15.609101 20.931057 -19.261051 0.000021 0.000015 -89.008881 -42.070499 -96.511195 -30.691706 -0.000020 0.000021 -29.789262 -7.896229 -4.496691 -20.216921 -0.000015 0.000009 4.647331 -15.548203 16.870639 -4.948780 2.881338 -3.679888 0.000002 0.000002 0.000005 -13.196833 -0.000017 0.084593 -0.000002 -0.000001 -0.000002 0.000012 -8.290520 -5.270943 -0.000007 -10.557300 -20.685904 19.261074 -0.000000 0.000008 -103.749638 50.602519 109.693419 30.691710 -0.000020 0.000005 -29.922277 7.640285 4.375756 20.216927 0.000000 -0.000004 0.368067 0.761901 -25.786162 4.948802 2.881326 -3.679864 0.000001 0.000000 -0.000006 13.196877 -0.000018 0.084611 0.000001 -0.000001 0.000001 -10.083071 0.000030 -0.000031 -117.204284 13.382730 25.313005 -0.000016 47.042484 0.000032 89.460452 -0.000004 -0.000006 -0.000002 38.766418 0.000017 -23.136446 0.139352 8.239016 0.000014 3.531204 0.000005 0.000000 -0.000000 -0.000000 -0.000012 -0.000004 -13.829349 -8.254111 0.000000 0.000000 -0.000009 -0.000008 -4.034168 0.000000 0.000003 0.000000 10.083054 -0.000005 -0.000031 -112.947369 -22.473003 -19.799480 0.000005 47.042519 0.000029 84.844528 -0.000003 -0.000006 0.000005 38.766411 -0.000017 -21.167228 2.595598 3.317275 -0.000009 3.531219 0.000004 -0.000000 -0.000003 -0.000001 0.000001 -0.000009 -13.829380 0.479317 0.000002 0.000002 -0.000005 -0.000008 -4.855085 -0.000002 0.000002 0.000001 
-67.557014 -175.832275 -67.873810 145.624701 -4.641955 -5.083523 0.000004 -12.181968 2.015581 24.359275 0.211182 -2.168422 0.000011 -8.890319 1.567621 6.625151 -0.109960 -0.808744 0.000009 -8.993089 0.786783 3.515868 -0.127325 1.552948 -0.000003 -9.027431 0.000001 -3.502005 -0.587551 3.900047 0.000003 -11.606752 -1.160672 -16.176014 3.169342 -0.763625 0.000002 -7.471594 -0.653678 -13.159019 3.629598 -2.249178 -0.000003 -7.386171 -1.302407 -7.769383 0.734584 -1.932531 -0.000018 -9.728088 -0.000007 0.000007 0.000001 -0.000000 0.000001 -8.290531 -5.270934 -0.000003 15.685820 21.007200 -19.261061 -0.000027 -0.000001 -89.293611 -41.870706 -96.566519 -30.691715 -0.000018 -0.000020 -29.863421 -8.093615 -4.621668 -20.216932 0.000010 0.000009 4.640922 -15.565571 16.831290 -4.948816 2.881329 -3.679898 -0.000001 0.000009 -0.000001 -13.196856 -0.000011 0.084581 0.000000 0.000003 -0.000003 0.000003 -8.290531 -5.270933 0.000001 -10.653547 -20.803230 19.261070 -0.000001 0.000005 -103.912750 50.897743 109.726101 30.691708 -0.000027 -0.000005 -30.381296 7.597396 4.432124 20.216928 0.000001 0.000017 0.254433 0.512861 -26.386460 4.948815 2.881324 -3.679892 -0.000003 0.000000 -0.000009 13.196852 0.000014 0.084596 0.000003 0.000004 -0.000002 -10.083073 -0.000019 0.000032 -118.320842 13.247738 25.452726 0.000001 47.042549 0.000005 90.137535 -0.000003 -0.000004 0.000012 38.766445 0.000014 -23.265824 0.131356 8.462455 0.000013 3.531212 -0.000012 -0.000001 0.000001 0.000000 0.000004 -0.000000 -13.829344 -8.457604 -0.000004 -0.000000 -0.000008 -0.000008 -4.034181 0.000000 0.000001 0.000000 10.083077 0.000021 0.000021 -113.932391 -22.359668 -19.827515 -0.000017 47.042538 0.000026 85.441582 -0.000009 -0.000002 -0.000007 38.766438 -0.000041 -21.442108 2.390585 3.388766 0.000004 3.531212 -0.000011 -0.000002 -0.000000 -0.000000 -0.000001 0.000016 -13.829361 0.534265 0.000003 -0.000001 -0.000006 -0.000023 -4.855075 -0.000001 0.000006 0.000001 
